<svg width="22" height="28" viewBox="0 0 22 28" fill="none" xmlns="http://www.w3.org/2000/svg">
<g filter="url(#filter0_d)">
<path d="M11.0007 19.288C9.75266 19.288 8.22466 19.096 6.41666 18.712L5.55266 18.544L5.88866 15.976C8.03266 16.264 9.67266 16.408 10.8087 16.408C12.5047 16.408 13.3527 15.704 13.3527 14.296C13.3527 13.72 13.1287 13.296 12.6807 13.024C12.2327 12.752 11.4807 12.464 10.4247 12.16C9.16066 11.808 8.16066 11.416 7.42466 10.984C6.70466 10.552 6.17666 10.04 5.84066 9.448C5.52066 8.856 5.36066 8.12 5.36066 7.24C5.36066 5.64 5.84866 4.432 6.82466 3.616C7.80066 2.8 9.16866 2.392 10.9287 2.392C11.6167 2.392 12.3287 2.44 13.0647 2.536C13.8007 2.616 14.8807 2.784 16.3047 3.04L16.0407 5.656C13.8487 5.4 12.2567 5.272 11.2647 5.272C9.52066 5.272 8.64866 5.848 8.64866 7C8.64866 7.4 8.79266 7.728 9.08066 7.984C9.36866 8.24 9.72866 8.456 10.1607 8.632C10.5927 8.792 11.3207 9.032 12.3447 9.352C13.4487 9.704 14.3047 10.072 14.9127 10.456C15.5207 10.84 15.9607 11.32 16.2327 11.896C16.5047 12.456 16.6407 13.184 16.6407 14.08C16.6407 15.76 16.1287 17.048 15.1047 17.944C14.0967 18.84 12.7287 19.288 11.0007 19.288Z" fill="#444040"/>
<path d="M11.0007 19.288C9.75266 19.288 8.22466 19.096 6.41666 18.712L5.55266 18.544L5.88866 15.976C8.03266 16.264 9.67266 16.408 10.8087 16.408C12.5047 16.408 13.3527 15.704 13.3527 14.296C13.3527 13.72 13.1287 13.296 12.6807 13.024C12.2327 12.752 11.4807 12.464 10.4247 12.16C9.16066 11.808 8.16066 11.416 7.42466 10.984C6.70466 10.552 6.17666 10.04 5.84066 9.448C5.52066 8.856 5.36066 8.12 5.36066 7.24C5.36066 5.64 5.84866 4.432 6.82466 3.616C7.80066 2.8 9.16866 2.392 10.9287 2.392C11.6167 2.392 12.3287 2.44 13.0647 2.536C13.8007 2.616 14.8807 2.784 16.3047 3.04L16.0407 5.656C13.8487 5.4 12.2567 5.272 11.2647 5.272C9.52066 5.272 8.64866 5.848 8.64866 7C8.64866 7.4 8.79266 7.728 9.08066 7.984C9.36866 8.24 9.72866 8.456 10.1607 8.632C10.5927 8.792 11.3207 9.032 12.3447 9.352C13.4487 9.704 14.3047 10.072 14.9127 10.456C15.5207 10.84 15.9607 11.32 16.2327 11.896C16.5047 12.456 16.6407 13.184 16.6407 14.08C16.6407 15.76 16.1287 17.048 15.1047 17.944C14.0967 18.84 12.7287 19.288 11.0007 19.288Z" fill="url(#paint0_linear)"/>
</g>
<defs>
<filter id="filter0_d" x="0.360657" y="0.391998" width="21.28" height="26.896" filterUnits="userSpaceOnUse" color-interpolation-filters="sRGB">
<feFlood flood-opacity="0" result="BackgroundImageFix"/>
<feColorMatrix in="SourceAlpha" type="matrix" values="0 0 0 0 0 0 0 0 0 0 0 0 0 0 0 0 0 0 127 0"/>
<feOffset dy="3"/>
<feGaussianBlur stdDeviation="2.5"/>
<feColorMatrix type="matrix" values="0 0 0 0 0.917647 0 0 0 0 0.537255 0 0 0 0 0.0588235 0 0 0 0.45 0"/>
<feBlend mode="normal" in2="BackgroundImageFix" result="effect1_dropShadow"/>
<feBlend mode="normal" in="SourceGraphic" in2="effect1_dropShadow" result="shape"/>
</filter>
<linearGradient id="paint0_linear" x1="11.1638" y1="5.86619" x2="11.1638" y2="14.1338" gradientUnits="userSpaceOnUse">
<stop stop-color="#FFEA2B"/>
<stop offset="1" stop-color="#F57C0C"/>
</linearGradient>
</defs>
</svg>
